# xmcd
#
# Track frame offsets: 
#        150
#        38095
#        86790
#        113734
#        161593
#        223660
#        265676
#
# Disc length: 4022 seconds
#
# Revision: 0
# Processed by: cddbd v1.5.2PL0 Copyright (c) Steve Scherf et al.
# Submitted via: ExactAudioCopy v1.0b1
#
DISCID=580fb407
DTITLE=Govt Mule - Irving Plaza [CD2)
DYEAR=2000
DGENRE=Blues Rock
TTITLE0=Never In My Life
TTITLE1=Stormy Monday
TTITLE2=Mississippi Queen
TTITLE3=32-20 Blues
TTITLE4=Smokestack Lightning
TTITLE5=Soulshine
TTITLE6=Mule
EXTD=
EXTT0=
EXTT1=
EXTT2=
EXTT3=
EXTT4=
EXTT5=
EXTT6=
PLAYORDER=
